<svg version="1.1" xmlns="http://www.w3.org/2000/svg" xmlns:xlink="http://www.w3.org/1999/xlink" x="0px" y="0px"
	 width="296px" height="208px" viewBox="60.5 196.5 296 208" enable-background="new 60.5 196.5 296 208" xml:space="preserve">
<g>
	<path fill="#005653" d="M84.54,250.994c0,3.631-0.584,6.576-1.751,8.84c-1.169,2.26-2.922,4.016-5.258,5.26
		c-2.338,1.24-5.445,2.186-9.324,2.832l-4.327-6.863c3.133-0.547,5.557-1.182,7.272-1.899c1.715-0.722,2.946-1.681,3.692-2.873
		c0.746-1.194,1.119-2.76,1.119-4.696v-30.207H65.448v-7.532H84.54V250.994z M76.635,207.066c-0.996-0.995-1.492-2.212-1.492-3.655
		c0-1.441,0.496-2.646,1.492-3.617c0.994-0.97,2.188-1.456,3.58-1.456c1.442,0,2.66,0.485,3.654,1.456
		c0.995,0.971,1.491,2.176,1.491,3.617c0,1.442-0.497,2.66-1.491,3.655c-0.995,0.996-2.212,1.492-3.654,1.492
		C78.822,208.559,77.628,208.062,76.635,207.066z"/>
	<path fill="#005653" d="M95.988,249.578c-2.61-2.188-3.915-5.318-3.915-9.398c0-2.783,0.72-5.119,2.163-7.01
		c1.441-1.889,3.318-3.292,5.63-4.214c2.312-0.92,4.786-1.38,7.422-1.38c3.628,0,6.787,0.671,9.471,2.015v-2.237
		c0-2.437-0.634-4.189-1.902-5.259c-1.268-1.068-3.145-1.604-5.631-1.604c-2.088,0-4.165,0.336-6.228,1.007
		c-2.064,0.671-4.016,1.629-5.854,2.872l-2.611-7.011c1.988-1.293,4.337-2.349,7.048-3.171c2.71-0.819,5.507-1.23,8.391-1.23
		c4.326,0,7.93,0.996,10.814,2.984c2.883,1.989,4.326,5.769,4.326,11.337v24.687h-8.353v-2.984
		c-2.685,2.588-6.216,3.879-10.59,3.879C101.993,252.857,98.599,251.766,95.988,249.578z M116.76,241.521v-4.92
		c-2.287-1.146-4.997-1.717-8.128-1.717c-2.387,0-4.364,0.446-5.93,1.342c-1.566,0.896-2.35,2.215-2.35,3.953
		c0,1.543,0.646,2.784,1.94,3.729c1.292,0.945,3.106,1.418,5.444,1.418C111.315,245.326,114.324,244.059,116.76,241.521z"/>
	<path fill="#005653" d="M129.29,213.854h9.174l8.802,24.164c0.546,1.69,0.919,3.06,1.119,4.103c0.247-1.343,0.62-2.71,1.118-4.103
		l8.726-24.164h9.099l-14.843,38.111h-8.353L129.29,213.854z"/>
	<path fill="#005653" d="M192.163,244.432h10.516v7.533H173.07v-7.533h10.517v-23.045H173.07v-7.532h19.093V244.432z
		 M184.258,207.066c-0.996-0.995-1.492-2.212-1.492-3.655c0-1.441,0.497-2.646,1.492-3.617c0.994-0.97,2.187-1.456,3.58-1.456
		c1.441,0,2.659,0.485,3.654,1.456c0.994,0.971,1.49,2.176,1.49,3.617c0,1.442-0.498,2.66-1.49,3.655
		c-0.996,0.996-2.213,1.492-3.654,1.492C186.445,208.559,185.252,208.062,184.258,207.066z"/>
	<path fill="#005653" d="M210.622,251.256c-1.118-1.117-1.679-2.5-1.679-4.139c0-1.59,0.561-2.958,1.679-4.104
		c1.118-1.144,2.498-1.715,4.139-1.715c1.642,0,3.046,0.571,4.214,1.715c1.168,1.146,1.752,2.514,1.752,4.104
		c0,1.591-0.572,2.958-1.715,4.102c-1.145,1.145-2.562,1.715-4.252,1.715C213.12,252.934,211.74,252.376,210.622,251.256z"/>
	<path fill="#00d7d2" d="M93.982,286.725c2.611,2.511,3.916,6.501,3.916,11.971v23.27h-8.577v-21.479
		c0-3.282-0.721-5.668-2.163-7.16c-1.443-1.491-3.356-2.238-5.743-2.238c-2.536,0-4.575,0.723-6.115,2.164
		c-1.542,1.443-2.312,3.806-2.312,7.086v21.63h-8.577v-38.113h7.906v4.699c0.746-1.492,2.2-2.799,4.363-3.916
		c2.163-1.119,4.537-1.68,7.124-1.68C87.979,282.957,91.372,284.214,93.982,286.725z"/>
	<path fill="#00d7d2" d="M137.427,306.227h-25.955c0.547,2.787,1.652,4.986,3.318,6.603c1.666,1.617,3.816,2.422,6.453,2.422
		c3.33,0,6.14-1.241,8.428-3.729l5.146,5.445c-1.691,1.84-3.681,3.28-5.967,4.325c-2.288,1.046-4.847,1.565-7.682,1.565
		c-3.73,0-6.962-0.82-9.696-2.459c-2.735-1.645-4.836-3.967-6.302-6.975c-1.467-3.008-2.2-6.525-2.2-10.555
		c0-4.076,0.746-7.618,2.237-10.628c1.492-3.008,3.605-5.308,6.34-6.897c2.735-1.591,5.941-2.389,9.622-2.389
		c4.872,0,8.85,1.53,11.933,4.587c3.083,3.06,4.624,7.545,4.624,13.463C137.726,303.195,137.626,304.936,137.427,306.227z
		 M129.297,298.918c-0.249-2.783-1.13-4.886-2.647-6.302c-1.517-1.417-3.345-2.125-5.481-2.125c-2.735,0-4.936,0.746-6.602,2.237
		c-1.666,1.492-2.722,3.556-3.169,6.19L129.297,298.918L129.297,298.918z"/>
	<path fill="#00d7d2" d="M152.716,330.096c3.629-0.301,6.451-0.76,8.465-1.379c2.014-0.625,3.442-1.492,4.288-2.611
		c0.846-1.119,1.268-2.625,1.268-4.512v-2.238c-2.039,2.338-4.996,3.504-8.875,3.504c-3.034,0-5.743-0.758-8.13-2.273
		c-2.386-1.516-4.263-3.777-5.63-6.787c-1.369-3.006-2.051-6.648-2.051-10.927c0-4.076,0.671-7.606,2.013-10.59
		c1.343-2.984,3.219-5.283,5.631-6.898s5.184-2.426,8.316-2.426c3.629,0,6.538,1.096,8.726,3.283v-2.386h8.578v34.084
		c0,4.373-0.586,7.904-1.753,10.592c-1.17,2.684-3.058,4.708-5.668,6.076c-2.61,1.369-6.13,2.201-10.554,2.5L152.716,330.096z
		 M166.738,310.777v-15.886c-0.795-1.094-1.815-2-3.058-2.723c-1.243-0.72-2.686-1.083-4.327-1.083
		c-2.833,0-4.996,1.009-6.488,3.022c-1.492,2.013-2.237,4.936-2.237,8.763c0,3.631,0.757,6.502,2.275,8.615
		c1.516,2.113,3.665,3.17,6.45,3.17C162.586,314.656,165.047,313.363,166.738,310.777z"/>
	<path fill="#00d7d2" d="M219.169,284.973v14.096h-8.354v-8.129h-0.746c-3.926,0-6.959,0.921-9.097,2.759
		c-2.14,1.84-3.208,4.6-3.208,8.279v12.454h10.666v7.533h-27.298v-7.533h8.055v-23.045h-8.055v-7.532h16.034v6.115
		c1.045-2.188,2.761-3.903,5.148-5.146c2.387-1.243,5.019-1.865,7.902-1.865C213.652,282.957,216.635,283.628,219.169,284.973z"/>
	<path fill="#00d7d2" d="M258.102,306.227h-25.953c0.545,2.787,1.652,4.986,3.318,6.603c1.665,1.617,3.814,2.422,6.45,2.422
		c3.332,0,6.142-1.241,8.429-3.729l5.146,5.445c-1.691,1.84-3.682,3.28-5.967,4.325c-2.289,1.046-4.851,1.565-7.682,1.565
		c-3.729,0-6.964-0.82-9.697-2.459c-2.734-1.645-4.834-3.967-6.304-6.975c-1.466-3.008-2.198-6.525-2.198-10.555
		c0-4.076,0.743-7.618,2.235-10.628c1.492-3.008,3.606-5.308,6.34-6.897c2.735-1.591,5.942-2.389,9.624-2.389
		c4.87,0,8.848,1.53,11.934,4.587c3.08,3.06,4.623,7.545,4.623,13.463C258.4,303.195,258.301,304.936,258.102,306.227z
		 M249.975,298.918c-0.252-2.783-1.132-4.886-2.649-6.302c-1.519-1.417-3.345-2.125-5.479-2.125c-2.736,0-4.937,0.746-6.604,2.237
		c-1.665,1.492-2.721,3.556-3.17,6.19L249.975,298.918L249.975,298.918z"/>
	<path fill="#00d7d2" d="M264.105,321.256c-1.119-1.117-1.679-2.5-1.679-4.139c0-1.59,0.56-2.958,1.679-4.104
		c1.119-1.144,2.5-1.715,4.141-1.715c1.642,0,3.045,0.571,4.213,1.715c1.168,1.146,1.754,2.514,1.754,4.104
		c0,1.591-0.57,2.958-1.715,4.102c-1.146,1.145-2.562,1.715-4.252,1.715C266.605,322.934,265.225,322.376,264.105,321.256z"/>
	<path fill="#00d7d2" d="M283.609,317.564c-3.135-3.531-4.699-8.403-4.699-14.619c0-4.076,0.721-7.619,2.162-10.628
		c1.441-3.008,3.492-5.319,6.154-6.937c2.657-1.614,5.752-2.425,9.282-2.425c8.106,0,13.327,3.457,15.664,10.368l-8.128,2.76
		c-1.295-3.331-3.779-4.998-7.46-4.998c-2.833,0-5.032,1.07-6.603,3.208c-1.563,2.139-2.349,5.023-2.349,8.651
		c0,3.631,0.784,6.488,2.349,8.576c1.569,2.092,3.72,3.135,6.455,3.135c3.977,0,6.586-1.866,7.832-5.594l8.125,2.533
		c-2.287,7.51-7.633,11.262-16.033,11.262C290.99,322.857,286.742,321.096,283.609,317.564z"/>
	<path fill="#00d7d2" d="M321.498,317.527c-3.282-3.555-4.922-8.414-4.922-14.582c0-4.027,0.746-7.543,2.238-10.553
		c1.489-3.008,3.603-5.333,6.338-6.975c2.732-1.641,5.968-2.462,9.695-2.462c3.729,0,6.975,0.811,9.732,2.425
		c2.759,1.617,4.872,3.929,6.338,6.937c1.468,3.009,2.201,6.552,2.201,10.628c0,6.117-1.628,10.962-4.885,14.545
		c-3.26,3.578-7.721,5.367-13.388,5.367C329.229,322.857,324.78,321.083,321.498,317.527z M341.969,311.521
		c1.667-2.088,2.5-4.944,2.5-8.576c0-3.628-0.833-6.513-2.5-8.651c-1.665-2.138-4.037-3.208-7.12-3.208
		c-3.036,0-5.396,1.07-7.085,3.208c-1.691,2.139-2.536,5.023-2.536,8.651c0,3.582,0.845,6.427,2.536,8.541
		c1.689,2.113,4.049,3.17,7.085,3.17C337.932,314.656,340.304,313.613,341.969,311.521z"/>
	<path fill="#005653" d="M208.51,402.661l29.312-62.799h8.803l-29.313,62.799H208.51z"/>
	<path fill="#005653" d="M247.219,388.602c-2.983-3.508-4.477-8.414-4.477-14.73c0-4.076,0.696-7.607,2.089-10.59
		c1.391-2.984,3.346-5.283,5.855-6.898c2.511-1.615,5.381-2.426,8.612-2.426c2.041,0,3.879,0.337,5.521,1.008
		c1.641,0.672,2.958,1.555,3.952,2.647v-14.544l8.577-3.953v53.849h-8.577v-2.907c-0.798,1.043-2.025,1.938-3.69,2.684
		c-1.667,0.746-3.52,1.117-5.559,1.117C254.305,393.857,250.202,392.105,247.219,388.602z M265.604,384.725
		c1.268-0.623,2.322-1.556,3.17-2.799v-16.109c-0.745-1.045-1.79-1.926-3.134-2.647c-1.343-0.72-3.032-1.083-5.067-1.083
		c-2.938,0-5.198,1.021-6.79,3.061c-1.591,2.039-2.388,4.947-2.388,8.725c0,3.581,0.81,6.441,2.425,8.578
		c1.614,2.139,3.916,3.207,6.898,3.207C262.706,385.656,264.334,385.348,265.604,384.725z"/>
	<path fill="#005653" d="M317.178,377.227h-25.955c0.545,2.787,1.652,4.986,3.319,6.603c1.663,1.617,3.813,2.422,6.45,2.422
		c3.33,0,6.14-1.241,8.429-3.729l5.146,5.445c-1.69,1.84-3.681,3.28-5.967,4.325c-2.288,1.046-4.848,1.565-7.681,1.565
		c-3.73,0-6.963-0.82-9.696-2.459c-2.734-1.645-4.835-3.967-6.303-6.975c-1.469-3.008-2.199-6.525-2.199-10.555
		c0-4.076,0.744-7.618,2.237-10.628c1.49-3.009,3.603-5.308,6.338-6.897c2.733-1.591,5.94-2.389,9.623-2.389
		c4.871,0,8.849,1.53,11.932,4.587c3.083,3.06,4.623,7.545,4.623,13.463C317.474,374.195,317.374,375.936,317.178,377.227z
		 M309.049,369.918c-0.252-2.783-1.133-4.886-2.647-6.302c-1.519-1.417-3.346-2.125-5.481-2.125c-2.737,0-4.938,0.746-6.6,2.237
		c-1.669,1.492-2.726,3.556-3.172,6.19L309.049,369.918L309.049,369.918z"/>
	<path fill="#005653" d="M329.109,392.033c-2.735-1.219-4.923-2.872-6.562-4.961l5.594-5.07c1.293,1.243,2.81,2.312,4.551,3.206
		c1.737,0.896,3.678,1.343,5.815,1.343c1.841,0,3.356-0.324,4.552-0.971c1.191-0.645,1.788-1.615,1.788-2.908
		c0-1.092-0.585-2.013-1.753-2.759c-1.168-0.748-3.17-1.688-6.003-2.835l-1.492-0.598c-3.034-1.291-5.346-2.385-6.937-3.281
		c-1.592-0.895-2.883-2.051-3.878-3.469c-0.996-1.416-1.491-3.193-1.491-5.332c0-3.23,1.393-5.78,4.176-7.646
		c2.784-1.864,6.29-2.797,10.518-2.797c3.082,0,5.818,0.549,8.203,1.642c2.387,1.094,4.4,2.562,6.043,4.399l-5.743,4.699
		c-1.245-1.043-2.536-1.876-3.879-2.499c-1.342-0.621-2.984-0.932-4.925-0.932c-1.938,0-3.491,0.287-4.659,0.857
		c-1.169,0.572-1.755,1.379-1.755,2.424c0,0.944,0.687,1.803,2.054,2.572c1.366,0.771,3.494,1.729,6.378,2.872
		c3.132,1.243,5.506,2.288,7.121,3.133c1.614,0.845,3.021,2.039,4.215,3.58c1.192,1.542,1.79,3.505,1.79,5.892
		c0,3.53-1.332,6.291-3.989,8.278c-2.662,1.989-6.254,2.981-10.779,2.981C334.827,393.857,331.845,393.25,329.109,392.033z"/>
</g>
</svg>
