<?xml version="1.0" encoding="utf-8"?>
<!-- Generator: Adobe Illustrator 16.0.0, SVG Export Plug-In . SVG Version: 6.00 Build 0)  -->
<!DOCTYPE svg PUBLIC "-//W3C//DTD SVG 1.1//EN" "http://www.w3.org/Graphics/SVG/1.1/DTD/svg11.dtd">
<svg version="1.1" id="Layer_1" xmlns="http://www.w3.org/2000/svg" xmlns:xlink="http://www.w3.org/1999/xlink" x="0px" y="0px"
	 width="600px" height="72px" viewBox="0 0 600 72" enable-background="new 0 0 600 72" xml:space="preserve">
<g>
	<path fill="#909090" d="M22.329,54.082c0,3.631-0.584,6.576-1.751,8.84c-1.169,2.26-2.922,4.015-5.258,5.259
		c-2.338,1.241-5.445,2.186-9.324,2.832L1.669,64.15c3.133-0.546,5.557-1.181,7.272-1.899c1.715-0.722,2.946-1.68,3.692-2.873
		c0.746-1.194,1.119-2.76,1.119-4.697V24.474H3.237v-7.532h19.092V54.082z M14.424,10.154c-0.996-0.995-1.492-2.212-1.492-3.655
		c0-1.442,0.496-2.647,1.492-3.617c0.994-0.97,2.188-1.456,3.58-1.456c1.442,0,2.66,0.485,3.654,1.456
		c0.995,0.97,1.491,2.175,1.491,3.617c0,1.442-0.497,2.66-1.491,3.655c-0.995,0.996-2.212,1.492-3.654,1.492
		C16.611,11.646,15.417,11.149,14.424,10.154z"/>
	<path fill="#909090" d="M33.777,52.666c-2.61-2.187-3.915-5.318-3.915-9.398c0-2.784,0.72-5.12,2.163-7.01
		c1.441-1.889,3.318-3.292,5.63-4.214c2.312-0.92,4.786-1.38,7.422-1.38c3.628,0,6.787,0.671,9.471,2.014v-2.237
		c0-2.436-0.634-4.189-1.902-5.259c-1.268-1.068-3.145-1.604-5.631-1.604c-2.088,0-4.165,0.336-6.228,1.007
		c-2.064,0.671-4.016,1.629-5.854,2.872l-2.611-7.011c1.988-1.293,4.337-2.349,7.048-3.171c2.71-0.819,5.507-1.23,8.391-1.23
		c4.326,0,7.93,0.996,10.814,2.984c2.883,1.989,4.326,5.769,4.326,11.337v24.687h-8.353v-2.984
		c-2.685,2.587-6.216,3.878-10.59,3.878C39.782,55.946,36.388,54.854,33.777,52.666z M54.549,44.61v-4.921
		c-2.287-1.145-4.997-1.717-8.128-1.717c-2.387,0-4.364,0.447-5.93,1.343c-1.566,0.895-2.35,2.214-2.35,3.952
		c0,1.544,0.646,2.785,1.94,3.729c1.292,0.946,3.106,1.418,5.444,1.418C49.104,48.414,52.113,47.147,54.549,44.61z"/>
	<path fill="#909090" d="M67.079,16.941h9.174l8.802,24.164c0.546,1.691,0.919,3.06,1.119,4.103c0.247-1.343,0.62-2.71,1.118-4.103
		l8.726-24.164h9.099L90.274,55.053h-8.353L67.079,16.941z"/>
	<path fill="#909090" d="M129.952,47.52h10.516v7.533h-29.609V47.52h10.517V24.474h-10.517v-7.532h19.093V47.52z M122.047,10.154
		c-0.996-0.995-1.492-2.212-1.492-3.655c0-1.442,0.497-2.647,1.492-3.617c0.994-0.97,2.187-1.456,3.58-1.456
		c1.441,0,2.659,0.485,3.654,1.456c0.994,0.97,1.491,2.175,1.491,3.617c0,1.442-0.498,2.66-1.491,3.655
		c-0.996,0.996-2.213,1.492-3.654,1.492C124.234,11.646,123.041,11.149,122.047,10.154z"/>
	<path fill="#909090" d="M148.411,54.344c-1.118-1.118-1.678-2.5-1.678-4.139c0-1.59,0.56-2.958,1.678-4.103
		c1.119-1.144,2.498-1.715,4.139-1.715s3.045,0.571,4.214,1.715c1.167,1.145,1.752,2.513,1.752,4.103
		c0,1.591-0.572,2.958-1.715,4.102c-1.145,1.144-2.562,1.715-4.252,1.715C150.909,56.021,149.53,55.464,148.411,54.344z"/>
	<path fill="#202020" d="M195.771,19.812c2.611,2.511,3.916,6.501,3.916,11.971v23.27h-8.577v-21.48c0-3.282-0.721-5.668-2.163-7.16
		c-1.443-1.491-3.356-2.238-5.743-2.238c-2.536,0-4.575,0.722-6.115,2.164c-1.542,1.443-2.312,3.805-2.312,7.086v21.629H166.2
		V16.941h7.906v4.699c0.746-1.492,2.2-2.798,4.363-3.916c2.163-1.119,4.537-1.679,7.124-1.679
		C189.768,16.045,193.161,17.302,195.771,19.812z"/>
	<path fill="#202020" d="M239.216,39.315h-25.955c0.547,2.787,1.652,4.986,3.318,6.602c1.666,1.617,3.816,2.422,6.453,2.422
		c3.33,0,6.14-1.241,8.428-3.729l5.146,5.445c-1.691,1.84-3.681,3.28-5.967,4.325c-2.288,1.046-4.847,1.565-7.682,1.565
		c-3.73,0-6.962-0.82-9.696-2.459c-2.735-1.644-4.836-3.966-6.302-6.974c-1.467-3.008-2.2-6.526-2.2-10.555
		c0-4.076,0.746-7.618,2.237-10.628c1.492-3.008,3.605-5.308,6.34-6.898s5.941-2.388,9.622-2.388c4.872,0,8.85,1.53,11.933,4.587
		c3.083,3.059,4.624,7.545,4.624,13.463C239.515,36.283,239.415,38.024,239.216,39.315z M231.086,32.006
		c-0.249-2.784-1.13-4.886-2.647-6.302c-1.517-1.417-3.345-2.125-5.481-2.125c-2.735,0-4.936,0.746-6.602,2.237
		c-1.666,1.492-2.722,3.556-3.169,6.191H231.086z"/>
	<path fill="#202020" d="M254.505,63.183c3.629-0.3,6.451-0.759,8.465-1.379c2.014-0.625,3.442-1.492,4.288-2.61
		c0.846-1.12,1.268-2.625,1.268-4.513v-2.238c-2.039,2.338-4.996,3.504-8.875,3.504c-3.034,0-5.743-0.757-8.13-2.273
		c-2.386-1.516-4.263-3.777-5.63-6.787c-1.369-3.006-2.051-6.649-2.051-10.927c0-4.076,0.671-7.607,2.013-10.59
		c1.343-2.984,3.219-5.283,5.631-6.899c2.412-1.615,5.184-2.425,8.316-2.425c3.629,0,6.538,1.095,8.726,3.283v-2.386h8.578v34.085
		c0,4.373-0.586,7.903-1.753,10.591c-1.17,2.684-3.058,4.708-5.668,6.077c-2.61,1.368-6.13,2.201-10.554,2.499L254.505,63.183z
		 M268.527,43.865V27.979c-0.795-1.093-1.815-2-3.058-2.722c-1.243-0.72-2.686-1.083-4.327-1.083c-2.833,0-4.996,1.008-6.488,3.022
		c-1.492,2.013-2.237,4.936-2.237,8.763c0,3.631,0.757,6.502,2.275,8.615c1.516,2.114,3.665,3.17,6.45,3.17
		C264.375,47.744,266.836,46.451,268.527,43.865z"/>
	<path fill="#202020" d="M320.958,18.06v14.096h-8.354v-8.129h-0.746c-3.927,0-6.96,0.921-9.097,2.759
		c-2.14,1.84-3.208,4.6-3.208,8.279V47.52h10.666v7.533h-27.298V47.52h8.055V24.474h-8.055v-7.532h16.034v6.115
		c1.045-2.188,2.761-3.903,5.148-5.146c2.387-1.243,5.019-1.865,7.903-1.865C315.441,16.045,318.424,16.716,320.958,18.06z"/>
	<path fill="#202020" d="M359.891,39.315h-25.954c0.545,2.787,1.653,4.986,3.319,6.602c1.665,1.617,3.814,2.422,6.45,2.422
		c3.332,0,6.141-1.241,8.429-3.729l5.146,5.445c-1.691,1.84-3.681,3.28-5.967,4.325c-2.289,1.046-4.85,1.565-7.681,1.565
		c-3.729,0-6.964-0.82-9.697-2.459c-2.735-1.644-4.835-3.966-6.304-6.974c-1.466-3.008-2.199-6.526-2.199-10.555
		c0-4.076,0.744-7.618,2.236-10.628c1.492-3.008,3.606-5.308,6.34-6.898c2.735-1.59,5.942-2.388,9.624-2.388
		c4.87,0,8.847,1.53,11.933,4.587c3.081,3.059,4.623,7.545,4.623,13.463C360.189,36.283,360.09,38.024,359.891,39.315z
		 M351.763,32.006c-0.251-2.784-1.131-4.886-2.649-6.302c-1.518-1.417-3.345-2.125-5.479-2.125c-2.737,0-4.937,0.746-6.604,2.237
		c-1.665,1.492-2.72,3.556-3.17,6.191H351.763z"/>
	<path fill="#202020" d="M365.894,54.344c-1.118-1.118-1.678-2.5-1.678-4.139c0-1.59,0.56-2.958,1.678-4.103
		c1.12-1.144,2.5-1.715,4.141-1.715c1.642,0,3.045,0.571,4.213,1.715c1.168,1.145,1.754,2.513,1.754,4.103
		c0,1.591-0.571,2.958-1.715,4.102c-1.146,1.144-2.562,1.715-4.252,1.715C368.394,56.021,367.014,55.464,365.894,54.344z"/>
	<path fill="#202020" d="M385.398,50.652c-3.134-3.531-4.699-8.403-4.699-14.619c0-4.076,0.721-7.619,2.162-10.628
		c1.442-3.008,3.493-5.319,6.154-6.936c2.658-1.615,5.753-2.425,9.283-2.425c8.106,0,13.327,3.457,15.664,10.368l-8.128,2.76
		c-1.295-3.331-3.78-4.998-7.46-4.998c-2.833,0-5.032,1.07-6.602,3.208c-1.564,2.138-2.349,5.023-2.349,8.651
		c0,3.631,0.784,6.489,2.349,8.577c1.569,2.091,3.719,3.134,6.454,3.134c3.977,0,6.587-1.866,7.832-5.594l8.126,2.534
		c-2.287,7.51-7.633,11.262-16.034,11.262C392.78,55.946,388.531,54.184,385.398,50.652z"/>
	<path fill="#202020" d="M423.287,50.615c-3.282-3.555-4.922-8.414-4.922-14.582c0-4.027,0.746-7.543,2.238-10.553
		c1.49-3.008,3.603-5.333,6.338-6.974c2.733-1.641,5.968-2.462,9.696-2.462c3.729,0,6.974,0.81,9.732,2.425
		c2.759,1.617,4.872,3.928,6.338,6.936c1.468,3.009,2.201,6.552,2.201,10.628c0,6.117-1.628,10.962-4.885,14.545
		c-3.259,3.578-7.72,5.367-13.387,5.367C431.018,55.946,426.569,54.171,423.287,50.615z M443.758,44.61
		c1.667-2.088,2.5-4.945,2.5-8.577c0-3.628-0.833-6.513-2.5-8.651c-1.665-2.138-4.037-3.208-7.12-3.208
		c-3.036,0-5.396,1.07-7.085,3.208c-1.692,2.138-2.536,5.023-2.536,8.651c0,3.582,0.844,6.427,2.536,8.541
		c1.689,2.114,4.049,3.17,7.085,3.17C439.721,47.744,442.093,46.701,443.758,44.61z"/>
	<path fill="#909090" d="M452.299,64.749L481.61,1.95h8.803L461.1,64.749H452.299z"/>
	<path fill="#909090" d="M491.008,50.689c-2.984-3.507-4.477-8.414-4.477-14.73c0-4.076,0.697-7.607,2.089-10.59
		c1.391-2.984,3.346-5.283,5.856-6.899c2.51-1.615,5.38-2.425,8.612-2.425c2.041,0,3.879,0.337,5.521,1.008
		c1.641,0.671,2.958,1.555,3.953,2.647V5.156l8.577-3.953v53.849h-8.577v-2.908c-0.798,1.044-2.026,1.938-3.691,2.684
		c-1.667,0.746-3.519,1.118-5.558,1.118C498.094,55.946,493.991,54.194,491.008,50.689z M509.393,46.812
		c1.267-0.622,2.322-1.555,3.17-2.798V27.904c-0.746-1.044-1.791-1.926-3.134-2.647c-1.343-0.72-3.033-1.083-5.068-1.083
		c-2.938,0-5.198,1.021-6.79,3.06c-1.591,2.039-2.387,4.947-2.387,8.725c0,3.581,0.809,6.441,2.424,8.578
		c1.615,2.139,3.916,3.207,6.899,3.207C506.495,47.744,508.123,47.435,509.393,46.812z"/>
	<path fill="#909090" d="M560.967,39.315h-25.955c0.545,2.787,1.652,4.986,3.319,6.602c1.663,1.617,3.814,2.422,6.45,2.422
		c3.33,0,6.14-1.241,8.429-3.729l5.145,5.445c-1.69,1.84-3.68,3.28-5.966,4.325c-2.288,1.046-4.848,1.565-7.681,1.565
		c-3.73,0-6.963-0.82-9.696-2.459c-2.735-1.644-4.835-3.966-6.303-6.974c-1.469-3.008-2.199-6.526-2.199-10.555
		c0-4.076,0.744-7.618,2.237-10.628c1.49-3.008,3.603-5.308,6.338-6.898c2.733-1.59,5.94-2.388,9.623-2.388
		c4.871,0,8.849,1.53,11.932,4.587c3.083,3.059,4.623,7.545,4.623,13.463C561.263,36.283,561.163,38.024,560.967,39.315z
		 M552.838,32.006c-0.252-2.784-1.133-4.886-2.648-6.302c-1.518-1.417-3.345-2.125-5.481-2.125c-2.737,0-4.937,0.746-6.6,2.237
		c-1.669,1.492-2.725,3.556-3.171,6.191H552.838z"/>
	<path fill="#909090" d="M572.898,54.121c-2.735-1.218-4.922-2.872-6.562-4.961l5.594-5.07c1.293,1.243,2.809,2.312,4.55,3.206
		c1.738,0.896,3.678,1.343,5.816,1.343c1.841,0,3.356-0.324,4.552-0.971c1.191-0.645,1.788-1.615,1.788-2.908
		c0-1.092-0.585-2.013-1.753-2.759c-1.168-0.748-3.17-1.689-6.003-2.835l-1.492-0.597c-3.034-1.291-5.346-2.386-6.937-3.282
		c-1.592-0.895-2.883-2.051-3.878-3.468c-0.996-1.417-1.491-3.194-1.491-5.333c0-3.23,1.393-5.78,4.176-7.645
		c2.784-1.864,6.29-2.797,10.517-2.797c3.082,0,5.819,0.549,8.204,1.642c2.386,1.094,4.4,2.561,6.042,4.399l-5.743,4.699
		c-1.245-1.043-2.536-1.876-3.879-2.499c-1.341-0.621-2.984-0.932-4.924-0.932c-1.938,0-3.492,0.287-4.66,0.858
		c-1.168,0.572-1.754,1.379-1.754,2.424c0,0.944,0.686,1.802,2.053,2.572c1.366,0.772,3.494,1.729,6.378,2.872
		c3.132,1.243,5.506,2.288,7.121,3.133c1.615,0.845,3.021,2.039,4.215,3.58c1.193,1.542,1.79,3.505,1.79,5.891
		c0,3.531-1.332,6.292-3.989,8.279c-2.662,1.989-6.254,2.982-10.779,2.982C578.616,55.946,575.634,55.338,572.898,54.121z"/>
</g>
</svg>
